# xmcd
#
# Track frame offsets: 
#        150
#        16437
#        30795
#        48372
#        65265
#        81090
#        98817
#        117005
#        134130
#        152130
#        173037
#        198770
#        216720
#        234837
#        253305
#        269735
#        286280
#        303020
#
# Disc length: 4285 seconds
#
# Revision: 7
# Processed by: cddbd v1.5.2PL0 Copyright (c) Steve Scherf et al.
# Submitted via: ExactAudioCopy v0.99pb5
#
DISCID=f810bb12
DTITLE=Various Artist - Hitbreaker '98 Die Dritte CD1
DYEAR=1900
DGENRE=Rock
TTITLE0=Falco - Out of the dark
TTITLE1=Sash - La Primavera
TTITLE2=DJ Bobo - Where is your love
TTITLE3=Gary Barlow feat Rosie Gaines - Hang on in there baby
TTITLE4=Sven Väth - Fusion
TTITLE5=Coleske - Take me where the sun is shining
TTITLE6=5NY - Finally
TTITLE7=Lustprinzip - Der Junge mit der schnellen Zunge
TTITLE8=Creme de la Creme - Letzte Nacht
TTITLE9=Mr Mister - Broken wings
TTITLE10=Talt Talk - Such a shame
TTITLE11=Sequential One - Imagination
TTITLE12=Pupo and Robin Beck - Nen e un addio
TTITLE13=John Hiatt - Dust down a country road
TTITLE14=Bell Book and Candle - See ya
TTITLE15=Fury in the slaughterhouse - Everything I did
TTITLE16=Rapsody feat LL Cool J - Dear Mallika
TTITLE17=Joanna - Frozen
EXTD=ID3G:  17
EXTT0=Falco
EXTT1=Sash
EXTT2=DJ Bobo
EXTT3=Garie Barlow feat. Rosie Gaines
EXTT4=Sven Vath
EXTT5=Coleske
EXTT6=5NY
EXTT7=Das Lustprinzip
EXTT8=Creme de la creme
EXTT9=Mr. Mister
EXTT10=Talk Talk
EXTT11=Sequential One
EXTT12=Pupo and Robin Beck
EXTT13=John Hiatt
EXTT14=Bell Book and Candle
EXTT15=Fury in the slaughterhouse
EXTT16=The Rapsody feat. LL Cool J
EXTT17=Joanna
PLAYORDER=
